<svg id="لوگو2" xmlns="http://www.w3.org/2000/svg" xmlns:xlink="http://www.w3.org/1999/xlink" width="199" height="64" viewBox="0 0 199 64">
  <defs>
    <linearGradient id="linear-gradient" y1="0.5" x2="1" y2="0.5" gradientUnits="objectBoundingBox">
      <stop offset="0" stop-color="#80cfdd"/>
      <stop offset="0.122" stop-color="#6cbfca"/>
      <stop offset="0.376" stop-color="#48a3a9"/>
      <stop offset="0.614" stop-color="#2e8f91"/>
      <stop offset="0.829" stop-color="#1f8383"/>
      <stop offset="1" stop-color="#1a7f7e"/>
    </linearGradient>
  </defs>
  <g id="Group_3650" data-name="Group 3650" transform="translate(133.358)">
    <circle id="Ellipse_51" data-name="Ellipse 51" cx="11.675" cy="11.675" r="11.675" transform="translate(18.01)" fill="url(#linear-gradient)"/>
    <path id="Path_16" data-name="Path 16" d="M288.889,192.388l-19.008-17.9a17.165,17.165,0,0,0-24.263.752h0l26.252,24.7a7.225,7.225,0,0,0,10.215-.314Z" transform="translate(-245.618 -138.807)" fill="url(#linear-gradient)"/>
    <path id="Path_17" data-name="Path 17" d="M309.031,152.078l-3.545-3.333L278.1,177.881h0s-11.744,12.517-20.081,4.682l8.326,7.825-.011.013,7.243,6.807a7.224,7.224,0,0,0,10.212-.317l25.779-27.429A12.3,12.3,0,0,0,309.031,152.078Z" transform="translate(-247.265 -136.007)" fill="url(#linear-gradient)"/>
    <path id="Path_18" data-name="Path 18" d="M306.844,156.8c-6.021,7.943-19.245,26.983-30.438,38.876a3.085,3.085,0,0,1-4.361.13l-13.281-12.5s5.961,8.141,20.082-4.682L303.31,152.6l2.92-3.106h0A5.482,5.482,0,0,1,306.844,156.8Z" transform="translate(-247.364 -136.106)" fill="#fff" opacity="0.23"/>
  </g>
  <g id="Group_3653" data-name="Group 3653" transform="translate(0 20.963)">
    <g id="Group_3651" data-name="Group 3651" transform="translate(73.192)">
      <path id="Path_19" data-name="Path 19" d="M311.143,250.893c-.28-.036-.487-.075-.585-.1A2.865,2.865,0,0,0,311.143,250.893Z" transform="translate(-303.039 -226.416)" fill="#4d4d4d"/>
      <path id="Path_20" data-name="Path 20" d="M335.963,241.228v5.34a1.208,1.208,0,0,1-1.172,1.241h-2.345a3.732,3.732,0,0,1-3.389-2.285l-1.221-2.767a5.919,5.919,0,0,0-2.758-2.829v.008a6.982,6.982,0,0,0-7.873,1.44h0a11.466,11.466,0,0,0-2.46,4.01c-.708,2.048-3.477,1.942-4.752,1.775a2.866,2.866,0,0,1-.585-.1l-.066-.014,0,0a1.3,1.3,0,0,1-.991-1.064v-23.3h-1.919a4.537,4.537,0,0,0-4.536,4.537v19.646c0,.335-.009.536-.009.8a6.944,6.944,0,0,0,6.949,6.976c2.89,0,4.522-.126,6.181-1.512l.532-.523.649-.689a7.4,7.4,0,0,0,11.483.9,16.666,16.666,0,0,0,2.133,1.164,15.145,15.145,0,0,0,5.215.662,7.45,7.45,0,0,0,5.32-1.748,7.205,7.205,0,0,0,2-4.971l.016,0V237.316h-1.919A4.534,4.534,0,0,0,335.963,241.228Zm-13.8,8.451a2.363,2.363,0,1,1,1.88-2.313A2.131,2.131,0,0,1,322.161,249.679Z" transform="translate(-301.888 -222.683)" fill="#4d4d4d"/>
      <path id="Path_21" data-name="Path 21" d="M310.548,250.8l-.063-.017,0,0Z" transform="translate(-303.029 -226.414)" fill="#4d4d4d"/>
      <path id="Path_22" data-name="Path 22" d="M347.337,231.45a1.9,1.9,0,0,0,0-2.686l-2.774-2.773-4.116,4.117,4.116,4.117Z" transform="translate(-307.008 -223.122)" fill="#4d4d4d"/>
    </g>
    <g id="Group_3652" data-name="Group 3652" transform="translate(0 2.869)">
      <path id="Path_23" data-name="Path 23" d="M281.681,247.093l.013-.014V244.5l-.008,0Z" transform="translate(-226.365 -228.449)" fill="#4d4d4d"/>
      <path id="Path_24" data-name="Path 24" d="M287.635,239.146a4.534,4.534,0,0,0-4.488,3.912V248.4a1.208,1.208,0,0,1-1.172,1.241H279.63c-1.124,0-2.07.167-2.8-.946v-2.681l-.013.014.005-2.59.008,0v-4.288h-1.92a4.534,4.534,0,0,0-4.488,3.912V248.4a1.208,1.208,0,0,1-1.172,1.241H266.9c-1.29,0-2.544.315-3.355-1.414h0l-.008-.023c-.052-.113-.1-.234-.152-.365a36.72,36.72,0,0,0-4.183-6.442h0l-3.739-4.93-4.947,4.039L255.78,247a2.02,2.02,0,0,1,.56,1.7c-.137.744-.933.995-1.69.995l0,.008h-9.611v1.92a4.536,4.536,0,0,0,4.536,4.536h6.383c.293.013.558,0,.826,0a6.933,6.933,0,0,0,4.777-1.89,17.843,17.843,0,0,0,2.72,1.548,13.29,13.29,0,0,0,3.977.63h.016q.271.012.562.019h.007q.3.007.612.007a9.949,9.949,0,0,0,2.818-.382c.053-.016.11-.029.161-.046s.093-.033.141-.049a5.485,5.485,0,0,0,2.33-1.388l0,.015.013-.015-.008.068A16.509,16.509,0,0,0,277,255.814a11.074,11.074,0,0,0,2.921.565l.017,0c.149.013.305.025.466.036l.049,0c.154.01.314.019.48.027l.068,0c.168.008.344.013.525.017l.058,0c.2,0,.41.007.627.007.047,0,.089,0,.135,0a7.382,7.382,0,0,0,5.473-2.05l-.01.049c.079-.1.156-.212.232-.326a7.206,7.206,0,0,0,1.5-4.387l.016,0V239.146Z" transform="translate(-221.5 -227.382)" fill="#4d4d4d"/>
      <path id="Path_25" data-name="Path 25" d="M289.967,262.816l-2.785,2.785-.01-.011-2.76-2.76-.023-.005-4.108,4.108,4.117,4.117,2.774-2.774.01-.011,2.785,2.785,2.774-2.774a1.9,1.9,0,0,0,0-2.685Z" transform="translate(-226.179 -230.881)" fill="#4d4d4d"/>
      <path id="Path_26" data-name="Path 26" d="M279.373,231.45a1.9,1.9,0,0,0,0-2.686l-2.773-2.773-4.117,4.117,4.117,4.117Z" transform="translate(-225.144 -225.991)" fill="#4d4d4d"/>
      <path id="Path_27" data-name="Path 27" d="M237.13,245.5a17.429,17.429,0,0,0-1.685-2.753,23.856,23.856,0,0,0-2.113-2.472,27.4,27.4,0,0,0-2.314-2.1,25.494,25.494,0,0,0-2.254-1.636l-.446-.284-.478.225a9.687,9.687,0,0,0-1.605,1c-.584.432-1.212.952-1.867,1.546S223.052,240.28,222.4,241a28.776,28.776,0,0,0-1.837,2.23,18.6,18.6,0,0,0-1.493,2.355,9.454,9.454,0,0,0-.909,2.406,8.234,8.234,0,0,0-.219,2.785,4.486,4.486,0,0,0,1.745,3.462h0a14.617,14.617,0,0,0,8.035,2.3,15.754,15.754,0,0,0,8.062-2.081,4.773,4.773,0,0,0,2.3-2.857l.016-.07a7.673,7.673,0,0,0,.027-3.09A11.983,11.983,0,0,0,237.13,245.5Zm-5.691,3.463a1.124,1.124,0,0,1-.6.721,4.3,4.3,0,0,1-1.234.445,7.482,7.482,0,0,1-1.541.155,7.152,7.152,0,0,1-1.534-.152,4.257,4.257,0,0,1-1.01-.349,2.941,2.941,0,0,1-.761-.532,1.873,1.873,0,0,1-.439-.654,1.235,1.235,0,0,1-.056-.716,3.583,3.583,0,0,1,.475-1.108,8.658,8.658,0,0,1,.863-1.165,15.175,15.175,0,0,1,1.058-1.1,13.482,13.482,0,0,1,1.062-.9,17.428,17.428,0,0,1,1.438,1.211,11.762,11.762,0,0,1,1.276,1.387,6.2,6.2,0,0,1,.845,1.427A2.225,2.225,0,0,1,231.439,248.959Z" transform="translate(-217.895 -227.353)" fill="#4d4d4d"/>
      <path id="Path_28" data-name="Path 28" d="M281.875,258.772v0c.011,0,.037.015.08.029l-.068-.029Z" transform="translate(-226.391 -230.344)" fill="#4d4d4d"/>
      <path id="Path_29" data-name="Path 29" d="M285.742,259.466c-.16-.011-.317-.023-.466-.036Q285.5,259.45,285.742,259.466Z" transform="translate(-226.842 -230.431)" fill="#4d4d4d"/>
      <path id="Path_30" data-name="Path 30" d="M287.026,259.528c-.18,0-.356-.01-.525-.017C286.67,259.519,286.845,259.524,287.026,259.528Z" transform="translate(-227.005 -230.442)" fill="#4d4d4d"/>
      <path id="Path_31" data-name="Path 31" d="M281.957,258.806a12,12,0,0,0,2.852.535,11.073,11.073,0,0,1-2.921-.565Z" transform="translate(-226.393 -230.344)" fill="#4d4d4d"/>
      <path id="Path_32" data-name="Path 32" d="M286.35,259.5c-.166-.008-.326-.016-.48-.027C286.023,259.486,286.184,259.5,286.35,259.5Z" transform="translate(-226.921 -230.437)" fill="#4d4d4d"/>
      <path id="Path_33" data-name="Path 33" d="M287.8,259.54h0c-.217,0-.425,0-.627-.007C287.374,259.537,287.581,259.54,287.8,259.54Z" transform="translate(-227.094 -230.445)" fill="#4d4d4d"/>
      <path id="Path_34" data-name="Path 34" d="M285.862,259.475l-.049,0Z" transform="translate(-226.914 -230.437)" fill="#4d4d4d"/>
      <path id="Path_35" data-name="Path 35" d="M286.491,259.51l-.068,0Z" transform="translate(-226.995 -230.441)" fill="#4d4d4d"/>
      <path id="Path_36" data-name="Path 36" d="M285.273,259.43l-.017,0Z" transform="translate(-226.84 -230.431)" fill="#4d4d4d"/>
      <path id="Path_37" data-name="Path 37" d="M287.164,259.533l-.058,0Z" transform="translate(-227.085 -230.445)" fill="#4d4d4d"/>
      <path id="Path_38" data-name="Path 38" d="M287.9,259.54c.044,0,.084,0,.127,0-.046,0-.088,0-.135,0Z" transform="translate(-227.19 -230.445)" fill="#4d4d4d"/>
      <path id="Path_39" data-name="Path 39" d="M285.037,262.827l-.017,0,0,0,.022,0Z" transform="translate(-226.808 -230.882)" fill="#4d4d4d"/>
      <path id="Path_40" data-name="Path 40" d="M285.027,262.816l-.006.007.017,0Z" transform="translate(-226.808 -230.881)" fill="#4d4d4d"/>
      <path id="Path_41" data-name="Path 41" d="M267.2,258.772v0l.085.031-.06-.026Z" transform="translate(-224.442 -230.344)" fill="#4d4d4d"/>
      <path id="Path_42" data-name="Path 42" d="M272.4,259.53q-.291-.008-.562-.019C272.016,259.519,272.2,259.526,272.4,259.53Z" transform="translate(-225.058 -230.442)" fill="#4d4d4d"/>
      <path id="Path_43" data-name="Path 43" d="M267.291,258.809a13.991,13.991,0,0,0,3.917.6,13.287,13.287,0,0,1-3.977-.63Z" transform="translate(-224.446 -230.345)" fill="#4d4d4d"/>
      <path id="Path_44" data-name="Path 44" d="M273.1,259.54h0q-.317,0-.612-.007C272.688,259.537,272.89,259.54,273.1,259.54Z" transform="translate(-225.145 -230.445)" fill="#4d4d4d"/>
      <path id="Path_45" data-name="Path 45" d="M272.49,259.533h0Z" transform="translate(-225.144 -230.445)" fill="#4d4d4d"/>
      <path id="Path_46" data-name="Path 46" d="M271.833,259.511h0Z" transform="translate(-225.055 -230.442)" fill="#4d4d4d"/>
      <path id="Path_47" data-name="Path 47" d="M279.479,257.407l-.005.046.01.007.008-.068Z" transform="translate(-226.072 -230.161)" fill="#4d4d4d"/>
      <path id="Path_48" data-name="Path 48" d="M273.215,259.541h0Z" transform="translate(-225.238 -230.446)" fill="#4d4d4d"/>
      <path id="Path_49" data-name="Path 49" d="M279.44,257.448v0l.006-.006h0Z" transform="translate(-226.067 -230.167)" fill="#4d4d4d"/>
      <path id="Path_50" data-name="Path 50" d="M267.189,258.772v.012l.011,0v-.012Z" transform="translate(-224.441 -230.344)" fill="#4d4d4d"/>
      <path id="Path_51" data-name="Path 51" d="M279.337,257.54c.038-.036.068-.066.089-.088v0C279.4,257.48,279.366,257.51,279.337,257.54Z" transform="translate(-226.054 -230.168)" fill="#4d4d4d"/>
      <path id="Path_52" data-name="Path 52" d="M267.2,258.789c.036.013.1.035.184.063l-.1-.044-.085-.031Z" transform="translate(-224.442 -230.344)" fill="#4d4d4d"/>
    </g>
  </g>
</svg>
